HIERARCHY
ROOT Hips
{
	OFFSET 55.352901 -13.969310 56.333298
	CHANNELS 6 Xposition Yposition Zposition Xrotation Yrotation Zrotation
	JOINT spine
	{
		OFFSET 0.000000 -0.467660 8.132492
		CHANNELS 3 Xrotation Yrotation Zrotation
		JOINT spine1
		{
			OFFSET 0.000000 -0.000002 10.349800
			CHANNELS 3 Xrotation Yrotation Zrotation
			JOINT spine2
			{
				OFFSET 0.000000 -0.000001 9.916992
				CHANNELS 3 Xrotation Yrotation Zrotation
				JOINT Neck
				{
					OFFSET 0.000000 -1.213904 25.460999
					CHANNELS 3 Xrotation Yrotation Zrotation
					JOINT Head
					{
						OFFSET 0.000000 -0.000001 7.692451
						CHANNELS 3 Xrotation Yrotation Zrotation
						End Site
						{
							OFFSET 0.000000 6.140627 18.619995
						}
					}
				}
				JOINT RightShoulder
				{
					OFFSET -4.175751 0.581443 10.709602
					CHANNELS 3 Xrotation Yrotation Zrotation
					JOINT RightArm
					{
						OFFSET 0.000000 -0.000003 14.046600
						CHANNELS 3 Xrotation Yrotation Zrotation
						JOINT RightArmRoll
						{
							OFFSET 0.000000 -0.000001 7.090988
							CHANNELS 3 Xrotation Yrotation Zrotation
							JOINT RightForeArm
							{
								OFFSET 0.000000 -0.000003 20.653503
								CHANNELS 3 Xrotation Yrotation Zrotation
								JOINT RightForeArmRoll
								{
									OFFSET 0.000000 -0.000002 7.957184
									CHANNELS 3 Xrotation Yrotation Zrotation
									JOINT RightHand
									{
										OFFSET 0.000000 -0.000003 15.968292
										CHANNELS 3 Xrotation Yrotation Zrotation
										End Site
										{
											OFFSET 0.000000 0.000000 0.100006
										}
									}
								}
							}
						}
					}
				}
				JOINT LeftShoulder
				{
					OFFSET 4.175751 0.581443 10.709602
					CHANNELS 3 Xrotation Yrotation Zrotation
					JOINT LeftArm
					{
						OFFSET 0.000000 -0.000003 14.046600
						CHANNELS 3 Xrotation Yrotation Zrotation
						JOINT LeftArmRoll
						{
							OFFSET 0.000000 -0.000001 7.090988
							CHANNELS 3 Xrotation Yrotation Zrotation
							JOINT LeftForeArm
							{
								OFFSET 0.000000 -0.000003 20.653503
								CHANNELS 3 Xrotation Yrotation Zrotation
								JOINT LeftForeArmRoll
								{
									OFFSET 0.000000 -0.000002 7.957184
									CHANNELS 3 Xrotation Yrotation Zrotation
									JOINT LeftHand
									{
										OFFSET 0.000000 -0.000003 15.968292
										CHANNELS 3 Xrotation Yrotation Zrotation
										End Site
										{
											OFFSET 0.000000 0.000000 0.100006
										}
									}
								}
							}
						}
					}
				}
			}
		}
	}
	JOINT RightUpLeg
	{
		OFFSET -7.208340 1.108841 -1.321819
		CHANNELS 3 Xrotation Yrotation Zrotation
		JOINT RightUpLegRoll
		{
			OFFSET 0.000000 -0.000004 18.723804
			CHANNELS 3 Xrotation Yrotation Zrotation
			JOINT RightLeg
			{
				OFFSET 0.000000 0.000004 -23.186604
				CHANNELS 3 Xrotation Yrotation Zrotation
				JOINT RightLegRoll
				{
					OFFSET 0.000000 -0.000004 23.262402
					CHANNELS 3 Xrotation Yrotation Zrotation
					JOINT RightFoot
					{
						OFFSET 0.000000 -0.000003 19.362099
						CHANNELS 3 Xrotation Yrotation Zrotation
						JOINT RightToeBase
						{
							OFFSET 0.000000 -0.000003 16.185699
							CHANNELS 3 Xrotation Yrotation Zrotation
							End Site
							{
								OFFSET 0.006859 0.903522 7.838631
							}
						}
					}
				}
			}
		}
	}
	JOINT LeftUpLeg
	{
		OFFSET 7.208340 1.108841 -1.321819
		CHANNELS 3 Xrotation Yrotation Zrotation
		JOINT LeftUpLegRoll
		{
			OFFSET 0.000000 -0.000004 18.723904
			CHANNELS 3 Xrotation Yrotation Zrotation
			JOINT LeftLeg
			{
				OFFSET 0.000000 -0.000004 23.186501
				CHANNELS 3 Xrotation Yrotation Zrotation
				JOINT LeftLegRoll
				{
					OFFSET 0.000000 -0.000004 23.477501
					CHANNELS 3 Xrotation Yrotation Zrotation
					JOINT LeftFoot
					{
						OFFSET 0.000000 -0.000003 19.147003
						CHANNELS 3 Xrotation Yrotation Zrotation
						JOINT LeftToeBase
						{
							OFFSET 0.000000 -0.000003 16.185699
							CHANNELS 3 Xrotation Yrotation Zrotation
							End Site
							{
								OFFSET -0.030746 0.903522 7.838623
							}
						}
					}
				}
			}
		}
	}
}
MOTION
Frames: 8
Frame Time: 0.041667
53.995995 -23.603607 67.244995 26.040393 -0.610975 -0.936383 3.044732 -1.061110 -0.032223 10.100463 -2.116896 0.012119 11.746029 -2.116612 0.037546 6.747597 7.026138 -5.337369 9.349655 -3.459835 -5.504128 -13.280698 -43.808844 -15.066699 -45.702903 -138.449341 -75.127867 -0.000001 -0.000002 -0.000007 75.187419 -6.814561 1.497554 -0.000003 0.000007 -2.999987 -5.000236 -7.999239 0.000103 -10.869461 56.891050 12.723422 -53.355180 133.474519 78.710663 -0.000002 -0.000002 -0.000003 65.770419 2.077161 -0.984977 0.000003 -0.000003 3.008195 -5.000215 7.998984 -0.000114 -97.000243 -172.449914 1.807629 -179.999991 0.000005 -0.733995 103.427506 -2.666328 -5.061066 -0.000002 -0.000000 1.464850 70.006543 7.591450 0.200932 25.456960 -7.355625 0.000006 -96.610922 170.720701 -1.283107 -0.000018 -0.000005 -0.777978 -79.115502 0.973116 3.702677 -0.000001 -0.000003 -1.779650 72.692324 -6.610304 -2.658262 25.456940 7.355361 -0.000010 
54.008198 -23.547905 67.127411 25.951217 -0.615941 -0.948053 3.042259 -1.061123 -0.032054 10.095961 -2.116275 0.013142 11.741529 -2.115981 0.038555 6.717171 7.007831 -5.338777 9.399032 -3.435732 -5.508989 -13.303450 -43.802167 -15.095883 -45.692664 -138.369551 -75.238454 -0.000001 -0.000000 -0.000006 75.348844 -6.757992 1.456821 -0.000003 0.000005 -2.999991 -5.000234 -7.999243 0.000104 -10.879498 56.859856 12.733705 -53.291957 133.451938 78.724398 0.000000 -0.000003 0.000002 65.868241 2.041429 -0.969882 0.000004 0.000001 3.008201 -5.000210 7.998984 -0.000113 -97.087546 -172.443835 1.828473 -179.999991 0.000005 -0.736999 103.286701 -2.631041 -5.051519 -0.000002 0.000001 1.472640 69.973710 7.595285 0.194556 25.456957 -7.355624 0.000005 -96.697857 170.715374 -1.306915 -0.000019 -0.000004 -0.781590 -79.271018 0.932981 3.683539 -0.000000 -0.000003 -1.788230 72.673547 -6.611778 -2.655196 25.456938 7.355361 -0.000010 
54.021797 -23.487608 67.013802 25.861434 -0.620392 -0.960368 3.039894 -1.061145 -0.031869 10.091551 -2.115734 0.014174 11.737119 -2.115427 0.039573 6.686791 6.989510 -5.339649 9.447637 -3.411583 -5.513337 -13.325646 -43.795938 -15.124373 -45.683427 -138.291223 -75.348898 -0.000003 0.000000 -0.000009 75.508008 -6.702017 1.416015 0.000002 0.000005 -2.999988 -5.000238 -7.999236 0.000104 -10.891237 56.828902 12.746037 -53.228344 133.432663 78.732902 -0.000001 -0.000004 0.000002 65.963030 2.007607 -0.955088 0.000001 0.000001 3.008198 -5.000214 7.998985 -0.000110 -97.173142 -172.438958 1.849799 -179.999991 0.000005 -0.740005 103.148028 -2.595841 -5.040801 -0.000003 0.000000 1.480361 69.939983 7.598987 0.188623 25.456957 -7.355625 0.000005 -96.783487 170.709090 -1.330054 -0.000019 -0.000005 -0.785143 -79.424725 0.893102 3.664331 -0.000001 -0.000003 -1.796670 72.653808 -6.613224 -2.652283 25.456941 7.355362 -0.000010 
54.038395 -23.433609 66.895790 25.771047 -0.624448 -0.973158 3.037642 -1.061168 -0.031689 10.087448 -2.115249 0.015162 11.733107 -2.114920 0.040550 6.656627 6.971139 -5.339921 9.495163 -3.387369 -5.517112 -13.347287 -43.790279 -15.152163 -45.675504 -138.214506 -75.459226 -0.000005 0.000000 -0.000011 75.664351 -6.646903 1.375566 0.000004 0.000002 -2.999989 -5.000237 -7.999238 0.000102 -10.904283 56.798224 12.759945 -53.164393 133.417937 78.734732 -0.000001 -0.000002 0.000003 66.054220 1.976244 -0.940721 -0.000000 0.000001 3.008200 -5.000209 7.998986 -0.000113 -97.256921 -172.434765 1.870662 -179.999991 0.000006 -0.741999 103.011376 -2.560721 -5.029940 -0.000003 -0.000000 1.488030 69.905374 7.602665 0.182847 25.456955 -7.355626 0.000007 -96.867430 170.702273 -1.352695 -0.000018 -0.000004 -0.788644 -79.576505 0.853490 3.645101 -0.000000 -0.000003 -1.804980 72.632990 -6.614643 -2.649434 25.456940 7.355362 -0.000010 
54.045200 -23.371307 66.784897 25.679662 -0.628231 -0.986256 3.035552 -1.061169 -0.031533 10.083737 -2.114791 0.016049 11.729299 -2.114459 0.041421 6.626863 6.952670 -5.339519 9.541302 -3.363065 -5.520225 -13.368435 -43.785676 -15.179356 -45.669090 -138.139551 -75.569350 -0.000002 -0.000001 -0.000004 75.817408 -6.592816 1.335645 0.000003 0.000007 -2.999989 -5.000238 -7.999238 0.000101 -10.918315 56.767871 12.775041 -53.099946 133.408758 78.728278 -0.000000 -0.000001 -0.000001 66.140540 1.947931 -0.926869 0.000004 -0.000002 3.008202 -5.000210 7.998982 -0.000112 -97.338617 -172.430803 1.891492 -179.999991 0.000004 -0.745005 102.876753 -2.526158 -5.020878 -0.000003 0.000000 1.495650 69.869939 7.606378 0.176937 25.456960 -7.355625 0.000005 -96.949597 170.694951 -1.374947 -0.000017 -0.000005 -0.792102 -79.725977 0.814177 3.625891 -0.000001 -0.000003 -1.813120 72.610969 -6.616015 -2.646846 25.456940 7.355361 -0.000009 
54.065296 -23.318605 66.669701 25.587270 -0.631862 -0.999534 3.033649 -1.061131 -0.031425 10.080232 -2.114370 0.016770 11.725895 -2.114016 0.042132 6.597661 6.934070 -5.338375 9.585730 -3.338655 -5.522612 -13.389071 -43.782233 -15.205925 -45.665439 -138.065922 -75.680791 -0.000004 -0.000001 -0.000004 75.966791 -6.539886 1.296318 0.000006 0.000006 -2.999992 -5.000234 -7.999246 0.000099 -10.932905 56.737668 12.790829 -53.034168 133.406900 78.710827 0.000001 -0.000002 0.000003 66.221437 1.923216 -0.913684 0.000004 -0.000001 3.008200 -5.000211 7.998985 -0.000115 -97.418066 -172.426609 1.913443 -179.999991 0.000006 -0.747996 102.744350 -2.491732 -5.009691 -0.000003 0.000000 1.503250 69.833507 7.610302 0.170735 25.456959 -7.355625 0.000005 -97.029558 170.687507 -1.398048 -0.000019 -0.000004 -0.795528 -79.873120 0.775171 3.606739 -0.000000 -0.000003 -1.821081 72.587610 -6.617246 -2.644715 25.456941 7.355360 -0.000009 
54.058395 -23.256310 66.559097 25.493585 -0.635462 -1.012817 3.031961 -1.061033 -0.031383 10.077228 -2.113948 0.017274 11.722895 -2.113587 0.042624 6.569220 6.915285 -5.336428 9.628140 -3.314129 -5.524196 -13.409248 -43.780416 -15.231984 -45.664640 -137.993672 -75.793195 -0.000002 -0.000001 -0.000007 76.112035 -6.488289 1.257744 0.000003 0.000007 -2.999992 -5.000239 -7.999242 0.000102 -10.947739 56.707741 12.806935 -52.967789 133.412856 78.682003 -0.000001 -0.000002 0.000002 66.295838 1.902664 -0.901263 0.000003 -0.000001 3.008201 -5.000215 7.998986 -0.000112 -97.495042 -172.421746 1.934597 -179.999991 0.000006 -0.751002 102.613982 -2.457852 -4.999301 -0.000003 0.000000 1.510821 69.796180 7.614394 0.164129 25.456959 -7.355627 0.000006 -97.107224 170.680062 -1.419937 -0.000019 -0.000004 -0.798929 -80.017661 0.736490 3.587687 -0.000000 -0.000003 -1.828840 72.562721 -6.618375 -2.643063 25.456941 7.355362 -0.000010 
54.076694 -23.202507 66.444000 25.398595 -0.639156 -1.025955 3.030517 -1.060864 -0.031430 10.074724 -2.113511 0.017502 11.720284 -2.113158 0.042839 6.541697 6.896286 -5.333600 9.668207 -3.289442 -5.524899 -13.428984 -43.780369 -15.257545 -45.666501 -137.923745 -75.905887 -0.000003 -0.000001 -0.000009 76.252751 -6.438159 1.220297 0.000004 0.000010 -2.999989 -5.000232 -7.999238 0.000102 -10.962468 56.678122 12.822941 -52.900874 133.427800 78.640319 -0.000001 -0.000003 0.000002 66.362979 1.886833 -0.889728 0.000003 0.000001 3.008199 -5.000212 7.998987 -0.000111 -97.569444 -172.415681 1.957149 -179.999991 0.000006 -0.753994 102.485745 -2.424549 -4.988736 -0.000003 0.000000 1.518370 69.757890 7.618831 0.156754 25.456957 -7.355625 0.000006 -97.182220 170.672972 -1.442759 -0.000018 -0.000004 -0.802315 -80.159401 0.698147 3.568762 0.000000 -0.000003 -1.836390 72.536261 -6.619304 -2.641870 25.456940 7.355362 -0.000010 
